<?xml version="1.0" encoding="utf-8"?><svg xmlns="http://www.w3.org/2000/svg" xmlns:xlink="http://www.w3.org/1999/xlink"><symbol viewBox="0 0 145.75 64.4" id="arrow" xmlns="http://www.w3.org/2000/svg"><path stroke="#00afaa" fill="none" stroke-miterlimit="10" d="M127.03.35L63.69 63.69.35.35"/><path stroke="#f49c14" fill="none" stroke-miterlimit="10" d="M145.4.35L82.06 63.69 18.72.35"/></symbol><symbol id="clock" viewBox="0 0 38.55 30.42" xmlns="http://www.w3.org/2000/svg"><defs><style>.bcls-1{fill:none;stroke:#00afaa;stroke-linecap:round;stroke-linejoin:round;stroke-width:.8px}</style></defs><path class="bcls-1" d="M12.85 29.75a14.92 14.92 0 1118.7-14.43m-6.39-8.2l-7.17 7.18m-2.79.39l-5.55-3.21"/><path class="bcls-1" d="M16.63 13.63a1.69 1.69 0 100 3.37 1.69 1.69 0 000-3.37zm0-9.64v1.04m17.8 6.36l-2.56 5.39-3.7-4.68m3.66 2.77v1M31.41 19a15 15 0 01-12.53 11.3c-.51.07-1 .12-1.52.14m-1.56-.04l-1-.1"/></symbol><symbol id="hand" viewBox="0 0 38.55 40" xmlns="http://www.w3.org/2000/svg"><defs><style>.ccls-1{fill:none;stroke:#00afaa;stroke-linecap:round;stroke-linejoin:round;stroke-width:.8px}</style></defs><path class="ccls-1" d="M19.1 27.27l4.78-2.55c1.12-.59 3.31-1.5 3.33.74l.8-.55c2.27-1.55 4-.45 3.14 1.69 4-2.93 5.45.78 3.66 1.69l-8.91 5.62-3.77 2.39c-2.67 1.7-6.2 1.7-7.19 1.12C9.31 36 7.68 34.58 2.77 35.21"/><path class="ccls-1" d="M.4 25.19l5.82-2.37a4.56 4.56 0 013.78 0l3.16 2.34c4.38 3.25 4.73 2.44 9.89 2.74 1.14.07 1.89 1.91 0 2.64-4.82 2.2-7.79 1.22-12.18-1M18 2.26a9.4 9.4 0 11-9.4 9.4 9.4 9.4 0 019.4-9.4z"/><path class="ccls-1" d="M14.07 12.36H19c2.23 0 3.77-.94 3.77-3.14S21.23 6 19 6h-3.13v11.85m-1.8-5.49l1.8 5.49m2.65-2.34h-4.45"/></symbol><symbol id="house" viewBox="0 0 57.2 57.88" xmlns="http://www.w3.org/2000/svg"><defs><style>.dcls-1{fill:none;stroke:#00afaa;stroke-linecap:round;stroke-linejoin:round}</style></defs><path class="dcls-1" d="M6.48.5h44.24a6 6 0 016 6v30.33a6 6 0 01-6 6H36.06L28.6 57.38l-7.46-14.57H6.48a6 6 0 01-6-6V6.48a6 6 0 016-6z"/><path class="dcls-1" d="M19.6 15.97v18.86h18.25V23.59"/><path class="dcls-1" d="M25.35 22.03h6.74v6.74h-6.74v-6.74zm-10.54-1.47l.12-.11-.12-.13L28.48 8.11l.12.11.12-.11 13.67 12.21-.12.13.12.11"/></symbol><symbol id="lock" viewBox="0 0 63.94 60.26" xmlns="http://www.w3.org/2000/svg"><defs><style>.ecls-1{fill:none;stroke:#00afaa;stroke-linecap:round;stroke-linejoin:round;stroke-width:1.18px}</style></defs><path class="ecls-1" d="M33.24 44.14H5.53A5 5 0 01.59 39.2V5.53A5 5 0 015.53.59h52.88a5 5 0 014.94 4.94V39.2a5 5 0 01-4.94 4.94h-2.25m-48.6-7.58h5.59m6.79 0h6.95"/><path class="ecls-1" d="M63.35 10.95v8.04H.59v-8.04h62.76zM35.67 38.18h18.6a1.71 1.71 0 011.73 1.7V54a5.72 5.72 0 01-5.7 5.7H39.66A5.72 5.72 0 0134 54V39.88a1.71 1.71 0 011.71-1.7zm1.98-.29v-5.23a6.17 6.17 0 016.15-6.15h2.35a6.17 6.17 0 016.15 6.15v5.23"/><path class="ecls-1" d="M45 45.05a1.56 1.56 0 11-1.56 1.56A1.56 1.56 0 0145 45.05zm-.03 7.57v-5.58"/></symbol><symbol id="logo" viewBox="0 0 148.12 61.27" xmlns="http://www.w3.org/2000/svg"><defs><style>.fcls-1{fill:#00afaa}.fcls-2{fill:#00539b}</style></defs><path class="fcls-1" d="M0 19.26h14.59A74.59 74.59 0 0042 46.68v14.59A67.37 67.37 0 010 19.26z"/><path class="fcls-2" d="M42 19.26v27.42a74.59 74.59 0 01-27.41-27.42z"/><path class="fcls-1" d="M42 19.26H14.59A73.71 73.71 0 016.89 0h15.87A19.25 19.25 0 0142 19.26z"/><path d="M61.27 38.52v15.86A73.36 73.36 0 0142 46.68V19.26a19.26 19.26 0 0119.27 19.26z" fill="#f39a00"/><path class="fcls-1" d="M41.86 0a25.55 25.55 0 0019.41 19.41V0z"/><path class="fcls-2" d="M93.27 23.78v19.6h-6v-19.6h-6.34v-4.6h18.69v4.6zm37.55-2.39a11.69 11.69 0 017.08-2.58c6.91 0 10.22 4.88 10.22 11.87 0 8.84-5 13.35-12.15 13.35s-11-4.51-11-14.91c0-8.65 2-14.54 5-17.4 2.11-2.11 4.51-3.13 8.56-4.14 2.48-.64 4.88-1 5.8-1.38l2.21 5c-1.2.74-3.41 1.2-7.83 2.12-5.06 1-7.36 2.76-7.91 8.1zm5.52 17.76c4 0 5.43-3.22 5.43-7.82 0-4.14-1.2-7.55-5.25-7.55a7.58 7.58 0 00-5.06 1.56 39.1 39.1 0 00-.18 5.62c0 5 1.56 8.19 5.06 8.19zM117 43.38l-8.1-11.32v11.32h-6.07v-24.2h6.07v10.58l7.18-10.58h6.63l-7.83 11 9.21 13.25z"/></symbol><symbol id="logo1" viewBox="0 0 148.12 61.27" xmlns="http://www.w3.org/2000/svg"><defs><style>.gcls-1{fill:#00afaa}.gcls-2{fill:#00539b}</style></defs><path class="gcls-1" d="M0 19.26h14.59A74.59 74.59 0 0042 46.68v14.59A67.37 67.37 0 010 19.26z"/><path class="gcls-2" d="M42 19.26v27.42a74.59 74.59 0 01-27.41-27.42z"/><path class="gcls-1" d="M42 19.26H14.59A73.71 73.71 0 016.89 0h15.87A19.25 19.25 0 0142 19.26z"/><path d="M61.27 38.52v15.86A73.36 73.36 0 0142 46.68V19.26a19.26 19.26 0 0119.27 19.26z" fill="#f39a00"/><path class="gcls-1" d="M41.86 0a25.55 25.55 0 0019.41 19.41V0z"/><path class="gcls-2" d="M93.27 23.78v19.6h-6v-19.6h-6.34v-4.6h18.69v4.6zm37.55-2.39a11.69 11.69 0 017.08-2.58c6.91 0 10.22 4.88 10.22 11.87 0 8.84-5 13.35-12.15 13.35s-11-4.51-11-14.91c0-8.65 2-14.54 5-17.4 2.11-2.11 4.51-3.13 8.56-4.14 2.48-.64 4.88-1 5.8-1.38l2.21 5c-1.2.74-3.41 1.2-7.83 2.12-5.06 1-7.36 2.76-7.91 8.1zm5.52 17.76c4 0 5.43-3.22 5.43-7.82 0-4.14-1.2-7.55-5.25-7.55a7.58 7.58 0 00-5.06 1.56 39.1 39.1 0 00-.18 5.62c0 5 1.56 8.19 5.06 8.19zM117 43.38l-8.1-11.32v11.32h-6.07v-24.2h6.07v10.58l7.18-10.58h6.63l-7.83 11 9.21 13.25z"/></symbol><symbol id="mobile" viewBox="0 0 97.18 55.03" xmlns="http://www.w3.org/2000/svg"><defs><style>.hcls-1{fill:none;stroke:#00afaa;stroke-linecap:round;stroke-linejoin:round;stroke-width:1.18px}</style></defs><path class="hcls-1" d="M39.81 45.33l8.81-8.81-8.81-8.8M96.53 9.33v40.45a4.67 4.67 0 01-4.66 4.65H65.06a4.67 4.67 0 01-4.66-4.65V5.25A4.68 4.68 0 0165.06.59h26.81c2 0 4.84.67 4.71 4.57v4.17M75.54 48.31h5.86m-20.23-5.57h34.32M61.76 7.43h34.32M8 48.47V3.59h16.66a14.15 14.15 0 019.89 3.5 12.54 12.54 0 013.78 9.45A12.61 12.61 0 0134.55 26a14.13 14.13 0 01-9.89 3.54H.59m46.8 7H34.92m-15.46 0H.59m26.68 0h-3.44M8 39.23"/></symbol><symbol id="money" viewBox="0 0 38.55 43.37" xmlns="http://www.w3.org/2000/svg"><defs><style>.icls-1{fill:none;stroke:#00afaa;stroke-width:.8px;stroke-linecap:round;stroke-linejoin:round}</style></defs><path class="icls-1" d="M27.4 23.78c-1.11-5.79-3-11.41-7.95-14.09V7.47l3.88-5H10.45l3.89 5v2.22C6.21 14.13 5.07 32.1 5 32.87v2.47h13.9M14.34 7.39h5.11m-5.11 2.28h5.11M23.9 33.1h9.67"/><path class="icls-1" d="M28.52 23.71a9.63 9.63 0 11-9.63 9.63 9.63 9.63 0 019.63-9.63z"/><path d="M14.61 27.26V17.09h3.77a3.19 3.19 0 012.24.8 3.09 3.09 0 010 4.28 3.24 3.24 0 01-2.24.81h-5.45m6.14 1.58h-6.14m1.68 2.81v-2.2" stroke-miterlimit="10" fill="none" stroke="#00afaa" stroke-width=".8"/></symbol><symbol id="pdf" viewBox="0 0 37.93 35.19" xmlns="http://www.w3.org/2000/svg"><defs><style>.jcls-1{fill:none;stroke:#00b1ab;stroke-linecap:round;stroke-linejoin:round;stroke-width:1.44px}.jcls-2{fill:#00b1ab}</style></defs><path class="jcls-1" d="M8.48 16V7.79a7.37 7.37 0 010-.94V.72h16.69l12 11.6v22.15H8.48v-4.68"/><path class="jcls-1" d="M24.84 1.29V12.3h12.37M13.12 7.91h6.62m-6.62 3.63h6.62M.72 16.6h29.77v12.38H.72z"/><path class="jcls-2" d="M9.37 26.61h-1.6v-7.69h3.52a2.23 2.23 0 012.37 2.46 2.35 2.35 0 01-2.45 2.45H9.37zm0-4.1h1.49a1.07 1.07 0 001.2-1.2c0-.75-.41-1.07-1.41-1.07H9.37zm5.51-3.59h3.39c2.59 0 3.13 2.2 3.13 3.67 0 1.64-.66 4-3.2 4h-3.32zm1.57 6.37H18c1.31 0 1.75-1.33 1.75-2.59 0-2.26-1.08-2.46-1.77-2.46h-1.53zm11.65-6.37v1.32h-3.88v1.59h3.39v1.33h-3.39v3.45h-1.6v-7.69z"/></symbol><symbol id="pen" viewBox="0 0 54.66 61.69" xmlns="http://www.w3.org/2000/svg"><defs><style>.kcls-1{fill:none;stroke:#00afaa;stroke-linecap:round;stroke-linejoin:round;stroke-width:1.13px}</style></defs><path class="kcls-1" d="M54.09 5.76L48.9.56 21.91 27.55l-2.41 7.61 7.61-2.42L54.09 5.76zm-9.41-.92l5.2 5.2"/><path stroke-width="1.18" fill="none" stroke="#00afaa" stroke-linecap="round" stroke-linejoin="round" d="M43.12 19.11V61.1H.59V7.68H41.7"/><path class="kcls-1" d="M7.89 18.98h21.16m-21.16 8.2h14.02m-14.02 8.2h11.09"/></symbol></svg>